<svg xmlns="http://www.w3.org/2000/svg" viewBox="0 0 512 512"><path d="M241 53a31 31 0 0 1 42 12l194 352a31 31 0 0 1-27 46H62a31 31 0 0 1-27-46L229 65c3-5 7-9 12-12z" fill="#ffa433" vector-effect="non-scaling-stroke" paint-order="stroke" stroke="#41494E" stroke-width="24"/><path d="M450 432c0-5-1-10-4-15L252 65c-3-5-7-9-11-12-5 3-9 7-12 12L35 417a31 31 0 0 0 27 46h357c17 0 31-14 31-31z" fill="#ffc43b"/><g fill="#41494E"><path d="M256 185c9 0 15 7 15 17v121c0 9-6 17-15 17s-15-8-15-17V202c0-10 6-17 15-17z"/><circle cx="256" cy="386" r="15"/></g></svg>
