<!--<svg xmlns="http://www.w3.org/2000/svg" width="20" height="20">
   <defs>
    <filter id="f">
      <feGaussianBlur in="SourceAlpha" stdDeviation="3" result="blur"/>
      <feSpecularLighting in="blur" surfaceScale="7" specularConstant=".4" specularExponent="25" lighting-color="#bbbbbb" result="specOut">
        <fePointLight x="-500" y="-1500" z="2000"/>
      </feSpecularLighting>
      <feComposite in="specOut" in2="SourceAlpha" operator="in" result="specOut"/>
      <feComposite in="SourceGraphic" in2="specOut" operator="arithmetic" k1="0" k2="1" k3="1" k4="0" result="litPaint"/>
    </filter>
   </defs>
   <path filter="url(#f)" fill="#000" d="m16.5 7.9l-0.5-1.1s1.1-2.4 1-2.5l-1.4-1.4c-0.1-0.1-2.5 1-2.5 1l-1.1-0.4s-0.9-2.5-1.1-2.5h-1.9c-0.1 0-1 2.5-1 2.5l-1.1 0.5s-2.5-1.1-2.5-1l-1.4 1.4c-0.1 0.1 1 2.5 1 2.5l-0.4 1.1s-2.5 1-2.5 1.1v2c0 0.1 2.5 1 2.5 1l0.5 1.1s-1.1 2.4-1 2.5l1.4 1.4c0.1 0.1 2.5-1 2.5-1l1.1 0.5s1 2.5 1.1 2.5h2c0.1 0 1-2.5 1-2.5l1.1-0.5s2.4 1.1 2.5 1l1.4-1.4c0.1-0.1-1-2.5-1-2.5l0.5-1.1s2.5-1 2.5-1.1v-2c0-0.1-2.5-1-2.5-1zm-4.1 2.1c0 1.3-1.1 2.4-2.4 2.4s-2.4-1.1-2.4-2.4 1.1-2.4 2.4-2.4 2.4 1.1 2.4 2.4z"/>
 </svg>
 -->
 
 <svg xmlns="http://www.w3.org/2000/svg" width="20" height="20"><defs><filter><feGaussianBlur in="SourceAlpha" stdDeviation="3" result="blur"/><feSpecularLighting in="blur" surfaceScale="7" specularConstant=".4" specularExponent="25" lighting-color="#bbbbbb" result="specOut"><fePointLight x="-500" y="-1500" z="2000"/></feSpecularLighting><feComposite in="specOut" in2="SourceAlpha" operator="in" result="specOut"/><feComposite in="SourceGraphic" in2="specOut" operator="arithmetic" k1="0" k2="1" k3="1" k4="0" result="litPaint"/></filter></defs><path filter="url(#f)" d="m16.5 7.9l-0.5-1.1s1.1-2.4 1-2.5l-1.4-1.4c-0.1-0.1-2.5 1-2.5 1l-1.1-0.4s-0.9-2.5-1.1-2.5h-1.9c-0.1 0-1 2.5-1 2.5l-1.1 0.5s-2.5-1.1-2.5-1l-1.4 1.4c-0.1 0.1 1 2.5 1 2.5l-0.4 1.1s-2.5 1-2.5 1.1v2c0 0.1 2.5 1 2.5 1l0.5 1.1s-1.1 2.4-1 2.5l1.4 1.4c0.1 0.1 2.5-1 2.5-1l1.1 0.5s1 2.5 1.1 2.5h2c0.1 0 1-2.5 1-2.5l1.1-0.5s2.4 1.1 2.5 1l1.4-1.4c0.1-0.1-1-2.5-1-2.5l0.5-1.1s2.5-1 2.5-1.1v-2c0-0.1-2.5-1-2.5-1zm-4.1 2.1c0 1.3-1.1 2.4-2.4 2.4s-2.4-1.1-2.4-2.4 1.1-2.4 2.4-2.4 2.4 1.1 2.4 2.4z"/></svg>
