<svg xmlns="http://www.w3.org/2000/svg" width="20" height="20"><path d="m16.5 7.9l-0.5-1.1s1.1-2.4 1-2.5l-1.4-1.4c-0.1-0.1-2.5 1-2.5 1l-1.1-0.4s-0.9-2.5-1.1-2.5h-1.9c-0.1 0-1 2.5-1 2.5l-1.1 0.5s-2.5-1.1-2.5-1l-1.4 1.4c-0.1 0.1 1 2.5 1 2.5l-0.4 1.1s-2.5 1-2.5 1.1v2c0 0.1 2.5 1 2.5 1l0.5 1.1s-1.1 2.4-1 2.5l1.4 1.4c0.1 0.1 2.5-1 2.5-1l1.1 0.5s1 2.5 1.1 2.5h2c0.1 0 1-2.5 1-2.5l1.1-0.5s2.4 1.1 2.5 1l1.4-1.4c0.1-0.1-1-2.5-1-2.5l0.5-1.1s2.5-1 2.5-1.1v-2c0-0.1-2.5-1-2.5-1zm-4.1 2.1c0 1.3-1.1 2.4-2.4 2.4s-2.4-1.1-2.4-2.4 1.1-2.4 2.4-2.4 2.4 1.1 2.4 2.4z"/></svg>