<svg xmlns="http://www.w3.org/2000/svg" width="25" height="25"><path d="M22.58 4.05c-1.1-1.08-2.64-1.62-4.6-1.62-.54 0-1.1.1-1.66.28-.56.2-1.1.5-1.57.8-.5.3-.9.6-1.25.9s-.7.6-1 .9c-.32-.3-.65-.6-1-.9s-.77-.6-1.25-.9c-.5-.3-1-.53-1.57-.72-.57-.18-1.12-.27-1.66-.27-1.96 0-3.5.54-4.6 1.6C1.3 5.16.74 6.66.74 8.56c0 .6.1 1.2.3 1.82.2.63.45 1.15.7 1.6.27.43.57.86.9 1.27.33.42.58.7.73.86l.36.32 8.18 7.9c.2.15.4.23.6.23.28 0 .4-.08.6-.23l8.2-7.87c2-2 3-3.97 3-5.9 0-1.93-.55-3.43-1.66-4.52h-.02z"/></svg>