<svg xmlns="http://www.w3.org/2000/svg" width="136" height="130"><path d="M4.1 101.3V75l36.5-37 24.1 24.4 2.8-2.8L42 33.8c-.8-.8-2.1-.8-2.8 0L4.1 69.3V24.5c0-2.5 2.1-4.6 4.6-4.6h98.6l4-4H8.6A8.7 8.7 0 0 0 0 24.5v76.8c0 4.7 3.9 8.6 8.6 8.6h8.6l4-4H8.6a4.6 4.6 0 0 1-4.5-4.6zm123.3-85.4h-2.8l-4 4h6.8c2.5 0 4.6 2 4.6 4.6v58.7l-28.5-28.8a2 2 0 0 0-1.4-.6 2 2 0 0 0-1.4.6L82.4 72.7l-7.3-7.4-2.8 2.8 37.3 37.7h-75l-4 4h96.8c4.7 0 8.6-4 8.6-8.6V24.5c0-4.8-3.9-8.6-8.6-8.6zm4.6 85c0 2.6-2.1 4.7-4.6 4.7h-12.2l-30-30.3 16.8-17 29.9 30.3V101z"/><path fill-opacity=".3" d="M132 101c0 2.5-2.1 4.6-4.6 4.6h-12.2l-30-30.3 16.8-17 29.9 30.3V101z"/><defs><filter id="f" width="136" height="136" x="-.4" y="-3"><feGaussianBlur in="SourceGraphic" stdDeviation="2.5"/><feOffset result="a"/><feFlood flood-color="#000" flood-opacity=".65"/><feComposite in2="a" operator="in" result="b"/><feBlend in="SourceGraphic" in2="b"/></filter></defs><path fill="red" d="M7.63 122.55L125.14 5.03l2.82 2.82L10.45 125.38l-2.82-2.83z" filter="url(#f)"/></svg>