<svg xmlns="http://www.w3.org/2000/svg" width="25" height="25"><path d="M17.34 12.5l5.23-5.23c.33-.33.5-.74.5-1.2 0-.48-.17-.9-.5-1.22l-2.42-2.42c-.33-.33-.74-.5-1.2-.5-.48 0-.9.17-1.22.5L12.5 7.66 7.27 2.43c-.33-.33-.74-.5-1.2-.5-.48 0-.9.17-1.22.5L2.43 4.85c-.33.33-.5.73-.5 1.2 0 .48.17.9.5 1.22l5.23 5.23-5.23 5.23c-.33.33-.5.73-.5 1.2 0 .48.17.9.5 1.22l2.42 2.42c.33.33.74.5 1.2.5.48 0 .9-.17 1.22-.5l5.23-5.23 5.23 5.23c.33.33.73.5 1.2.5.48 0 .9-.17 1.22-.5l2.42-2.42c.33-.33.5-.74.5-1.2 0-.48-.17-.9-.5-1.22l-5.23-5.23"/></svg>