<svg xmlns="http://www.w3.org/2000/svg" width="512" height="512"><defs><linearGradient id="a" x2="1" y2="1" gradientTransform="matrix(223 0 0 193 281 190)" gradientUnits="userSpaceOnUse"><stop offset="0%" stop-color="#ddad92"/><stop offset="100%"/></linearGradient></defs><path fill="#CCC0A5" d="M403 106h85c-5-21-7-56-85-42v42z"/><path fill="#F2EBDA" d="M403 103c0-23 19-42 43-42H135c-23 0-42 19-42 42v348h268c23 0 42-19 42-42V103z"/><path fill="#E8DFCB" d="M318 406H8c0 26 19 45 42 45h310c-23 0-42-19-42-45z"/><path stroke="#C3C2B0" stroke-width="12" d="M228 133h132m-220 0h55m-55 86h157m-157 74h108m-113 74h83"/><path fill="url(#a)" d="M289 326c30-90 121-144 215-134-18 15-34 30-53 51-20 22-58 59-91 63-105 13-46 61-79 77 3-9 2-27 8-57z"/></svg>
