<svg xmlns="http://www.w3.org/2000/svg" width="136" height="130"><path stroke="#ffc7c7" stroke-width="2.4" d="M109.17 68.19L88.73 43.1l-6.81 4.1 20.42 25.06c3.06 3.56 2.29 8.6-1.87 11.27-4.03 2.58-30.18 19.06-30.18 19.06a15.79 15.79 0 0 0-3.72-9.67s-26.19-33.35-32.63-41.6c-5.37-6.86.13-13.61 5.73-13.61 8.26 0 11.13 11.13 3.76 15.07l4.87 6.28L85.22 38.2a15.07 15.07 0 0 0-15.05-25.9v-.02L32.82 31.4c-9.46 4.53-11.95 16.13-5.07 24.78 6.6 8.3 33.08 42.15 33.08 42.15a8 8 0 0 1-6.4 12.8c-8.27 0-11.13-11.14-3.75-15.07l-4.87-6.25a15.87 15.87 0 0 0 16.73 26.95v.01l42.79-26.98s-7.32 4.78 0-.01c7.3-4.8 9.03-15.24 3.84-21.6zM79.85 32.33L55.53 46.1a15.84 15.84 0 0 0-7.31-13.75l25.03-12.82a7.13 7.13 0 0 1 9.38 3.14c1.65 3.16 1.03 7.47-2.78 9.66zM60.58 74.5l4.75-12 3.55 4.67-2.16 6.4 7.99 1.26 3.54 4.66-15.26-1.82-2.41-3.17zm24.99-13.23l2.41 3.17-4.76 12-3.53-4.65 2.14-6.43-7.97-1.24-3.55-4.66 15.26 1.81z"/><defs><filter id="f" width="136" height="136" x="-.4" y="-3"><feGaussianBlur in="SourceGraphic" stdDeviation="2.5"/><feOffset result="a"/><feFlood flood-color="#000" flood-opacity=".65"/><feComposite in2="a" operator="in" result="b"/><feBlend in="SourceGraphic" in2="b"/></filter></defs><path fill="red" d="M7.63 122.55L125.14 5.03l2.82 2.82L10.45 125.38l-2.82-2.83z" filter="url(#f)"/></svg>